<svg width="64" height="50" viewBox="0 0 64 50" fill="none" xmlns="http://www.w3.org/2000/svg">
<path d="M24.1201 30.5503C24.1201 30.7233 24.2628 30.8805 24.4531 30.8805H31.5576C31.7479 30.8805 31.8906 30.7233 31.8906 30.5503V29.1352C31.8906 28.9623 31.7479 28.805 31.5576 28.805H26.3878V25.7862H30.7013C30.8757 25.7862 31.0343 25.6447 31.0343 25.456V24.0252C31.0343 23.8522 30.8916 23.695 30.7013 23.695H26.3878V20.8648H31.5576C31.7479 20.8648 31.8906 20.7075 31.8906 20.5346V19.1195C31.8906 18.9465 31.7479 18.7893 31.5576 18.7893H24.4531C24.2628 18.7893 24.1201 18.9465 24.1201 19.1195V30.5503Z" fill="black"/>
<path d="M15.1291 10.6919C15.1291 8.05043 17.7615 5.94352 20.5526 6.9498C21.6151 7.32716 22.4873 8.19194 22.8679 9.2454C23.8986 12.0284 21.7895 14.6542 19.1253 14.6542C16.9369 14.6542 15.1291 12.8775 15.1291 10.6919ZM12.8613 10.6919C12.8613 14.3712 16.0013 17.2485 19.8072 16.8555C22.6776 16.5567 25.0404 14.2454 25.3576 11.3995C25.7699 7.61018 22.852 4.43408 19.1253 4.43408C15.6365 4.44981 12.8613 7.23282 12.8613 10.6919Z" fill="black"/>
<path d="M32.842 40.5345C32.842 43.1603 34.9512 45.283 37.6946 45.283C40.454 45.283 42.5631 43.1603 42.5631 40.5345V33.349C42.5631 33.176 42.4204 33.0188 42.2301 33.0188H40.565C40.3747 33.0188 40.232 33.176 40.232 33.349V40.4402C40.232 41.8867 39.2012 43.0503 37.6788 43.0503C36.1564 43.0503 35.1573 41.8867 35.1573 40.4245V33.349C35.1573 33.176 35.0146 33.0188 34.8243 33.0188H33.1592C32.9848 33.0188 32.8262 33.1603 32.8262 33.349V40.5345H32.842Z" fill="black"/>
<path d="M44.2287 28.7737V20.8806H46.0682C48.0822 20.8806 49.89 22.3114 50.1121 24.2925C50.3975 26.824 48.6531 28.7737 46.2109 28.7737H44.2287ZM41.9768 30.5504C41.9768 30.7234 42.1195 30.8806 42.3098 30.8806H46.4171C49.779 30.8806 52.5384 28.1605 52.5384 24.8114C52.5384 21.4938 49.779 18.7737 46.4171 18.7737H42.2781C42.1037 18.7737 41.9609 18.9152 41.9609 19.0881V30.5504H41.9768Z" fill="black"/>
<path d="M22.0109 48.6006H21.8682L51.8719 0.974854H52.0146L22.0109 48.6006Z" fill="black" stroke="#191919" stroke-width="0.25"/>
<path d="M54.7588 30.5503C54.7588 30.7233 54.9015 30.8805 55.0918 30.8805H62.1963C62.3866 30.8805 62.5293 30.7233 62.5293 30.5503V29.1352C62.5293 28.9623 62.3866 28.805 62.1963 28.805H57.0265V25.7862H61.3399C61.5144 25.7862 61.673 25.6447 61.673 25.456V24.0252C61.673 23.8365 61.5302 23.695 61.3399 23.695H57.0265V20.8648H62.1963C62.3866 20.8648 62.5293 20.7075 62.5293 20.5346V19.1195C62.5293 18.9465 62.3866 18.7893 62.1963 18.7893H55.0918C54.9015 18.7893 54.7588 18.9465 54.7588 19.1195V30.5503Z" fill="black"/>
<path d="M7.73877 30.4875C7.70706 30.7234 7.84978 30.8806 8.0718 30.8806H9.64176C9.80034 30.8806 9.94306 30.7391 9.95892 30.6133L10.9738 24.0567H11.0214L14.1138 30.8649C14.1613 30.9749 14.2565 31.0536 14.4151 31.0536H14.7322C14.8908 31.0536 14.986 30.9592 15.0335 30.8649L18.0783 24.0724H18.1259L19.1567 30.629C19.1884 30.7548 19.3311 30.8963 19.4897 30.8963H21.0755C21.2975 30.8963 21.4403 30.7391 21.3927 30.5032L19.3311 18.8838C19.3153 18.7422 19.2043 18.6165 19.014 18.6165H18.7285C18.5699 18.6165 18.4906 18.6793 18.4272 18.7894L14.5895 26.9498H14.5419L10.7043 18.7894C10.6567 18.6793 10.5457 18.6165 10.403 18.6165H10.1175C9.92721 18.6165 9.8162 18.7422 9.80034 18.8838L7.73877 30.4875Z" fill="black"/>
<path d="M44.7839 44.6383C44.6412 44.8584 44.7839 45.1257 45.1011 45.1257H46.9882C47.1309 45.1257 47.2261 45.0314 47.2895 44.9685L49.7475 41.0062H49.7951L52.2848 44.9685C52.3166 45.0314 52.4434 45.1257 52.5861 45.1257H54.4733C54.7746 45.1257 54.9173 44.8899 54.7746 44.6383L51.1431 38.915L54.6477 33.5062C54.7904 33.2861 54.6477 33.0188 54.3464 33.0188H52.3166C52.1738 33.0188 52.0787 33.1131 52.0311 33.176L49.7634 36.8396H49.7475L47.5274 33.176C47.4798 33.1131 47.3847 33.0188 47.2419 33.0188H45.2121C44.9108 33.0188 44.7839 33.2861 44.9108 33.5062L48.3996 38.915L44.7839 44.6383Z" fill="black"/>
<path d="M27.2446 16.3208C27.2129 16.5566 27.3556 16.7139 27.5777 16.7139H29.1476C29.3062 16.7139 29.4489 16.5723 29.4648 16.4466L30.4797 9.88996H30.5273L33.6196 16.6824C33.6672 16.7925 33.7624 16.8711 33.9209 16.8711H34.2381C34.3967 16.8711 34.5077 16.7768 34.5394 16.6824L37.5525 9.90568H37.6001L38.6308 16.4623C38.6626 16.5881 38.8053 16.7296 38.9639 16.7296H40.5497C40.7717 16.7296 40.9144 16.5723 40.8668 16.3365L38.8053 4.717C38.7894 4.57549 38.6784 4.44971 38.4881 4.44971H38.2185C38.0599 4.44971 37.9806 4.5126 37.9172 4.62266L34.0954 12.783H34.0478L30.2101 4.62266C30.1625 4.5126 30.0515 4.44971 29.9088 4.44971H29.6234C29.4331 4.44971 29.3221 4.57549 29.3062 4.717L27.2446 16.3208Z" fill="black"/>
<path d="M0.808594 10.6918C0.808594 14.151 3.6155 16.9025 7.1043 16.9025C8.65841 16.9025 10.1491 16.3679 11.3384 15.2201C11.4653 15.0944 11.497 14.8742 11.3543 14.7484L10.2759 13.6478C10.1649 13.5378 9.97464 13.522 9.84777 13.6478C9.11829 14.2296 8.23024 14.6384 7.18359 14.6384C4.94759 14.6384 3.28247 12.7988 3.28247 10.6447C3.26662 8.45914 4.93173 6.6038 7.15188 6.6038C8.13509 6.6038 9.10244 6.98115 9.83191 7.62581C9.97464 7.76732 10.1491 7.76732 10.2601 7.62581L11.3226 6.5409C11.4653 6.39939 11.4653 6.19499 11.3067 6.05348C10.1491 5.00002 8.86456 4.44971 7.1043 4.44971C3.6155 4.44971 0.808594 7.23273 0.808594 10.6918Z" fill="black"/>
</svg>
