<svg width="118" height="22" viewBox="0 0 118 22" fill="none" xmlns="http://www.w3.org/2000/svg">
<path d="M10.8811 1.57941C10.9185 1.46425 11.0815 1.46424 11.1189 1.57941L13.0008 7.3712C13.1179 7.73172 13.4539 7.97581 13.8329 7.97581H19.9228C20.0439 7.97581 20.0942 8.13076 19.9963 8.20194L15.0695 11.7815C14.7628 12.0043 14.6345 12.3992 14.7516 12.7597L16.6335 18.5515C16.6709 18.6667 16.5391 18.7625 16.4411 18.6913L11.5143 15.1118C11.2076 14.889 10.7924 14.889 10.4857 15.1118L5.55889 18.6913C5.46093 18.7625 5.32912 18.6667 5.36654 18.5515L7.2484 12.7597C7.36555 12.3992 7.23722 12.0043 6.93054 11.7815L2.00375 8.20194C1.90578 8.13077 1.95613 7.97581 2.07722 7.97581H8.16708C8.54615 7.97581 8.88211 7.73172 8.99925 7.3712L10.8811 1.57941Z" stroke="#9E82B9" stroke-width="0.75"/>
<path d="M34.8811 1.57941C34.9185 1.46425 35.0815 1.46424 35.1189 1.57941L37.0008 7.3712C37.1179 7.73172 37.4539 7.97581 37.8329 7.97581H43.9228C44.0439 7.97581 44.0942 8.13076 43.9963 8.20194L39.0695 11.7815C38.7628 12.0043 38.6345 12.3992 38.7516 12.7597L40.6335 18.5515C40.6709 18.6667 40.5391 18.7625 40.4411 18.6913L35.5143 15.1118C35.2076 14.889 34.7924 14.889 34.4857 15.1118L29.5589 18.6913C29.4609 18.7625 29.3291 18.6667 29.3665 18.5515L31.2484 12.7597C31.3655 12.3992 31.2372 12.0043 30.9305 11.7815L26.0037 8.20194C25.9058 8.13077 25.9561 7.97581 26.0772 7.97581H32.1671C32.5461 7.97581 32.8821 7.73172 32.9992 7.3712L34.8811 1.57941Z" stroke="#9E82B9" stroke-width="0.75"/>
<path d="M58.8811 1.57941C58.9185 1.46425 59.0815 1.46424 59.1189 1.57941L61.0008 7.3712C61.1179 7.73172 61.4539 7.97581 61.8329 7.97581H67.9228C68.0439 7.97581 68.0942 8.13076 67.9963 8.20194L63.0695 11.7815C62.7628 12.0043 62.6345 12.3992 62.7516 12.7597L64.6335 18.5515C64.6709 18.6667 64.5391 18.7625 64.4411 18.6913L59.5143 15.1118C59.2076 14.889 58.7924 14.889 58.4857 15.1118L53.5589 18.6913C53.4609 18.7625 53.3291 18.6667 53.3665 18.5515L55.2484 12.7597C55.3655 12.3992 55.2372 12.0043 54.9305 11.7815L50.0037 8.20194C49.9058 8.13077 49.9561 7.97581 50.0772 7.97581H56.1671C56.5461 7.97581 56.8821 7.73172 56.9992 7.3712L58.8811 1.57941Z" stroke="#9E82B9" stroke-width="0.75"/>
<path d="M82.8811 1.57941C82.9185 1.46425 83.0815 1.46424 83.1189 1.57941L85.0008 7.3712C85.1179 7.73172 85.4539 7.97581 85.8329 7.97581H91.9228C92.0439 7.97581 92.0942 8.13076 91.9963 8.20194L87.0695 11.7815C86.7628 12.0043 86.6345 12.3992 86.7516 12.7597L88.6335 18.5515C88.6709 18.6667 88.5391 18.7625 88.4411 18.6913L83.5143 15.1118C83.2076 14.889 82.7924 14.889 82.4857 15.1118L77.5589 18.6913C77.4609 18.7625 77.3291 18.6667 77.3665 18.5515L79.2484 12.7597C79.3655 12.3992 79.2372 12.0043 78.9305 11.7815L74.0037 8.20194C73.9058 8.13077 73.9561 7.97581 74.0772 7.97581H80.1671C80.5461 7.97581 80.8821 7.73172 80.9992 7.3712L82.8811 1.57941Z" stroke="#9E82B9" stroke-width="0.75"/>
<path d="M106.881 1.57941C106.919 1.46425 107.081 1.46424 107.119 1.57941L109.001 7.3712C109.118 7.73172 109.454 7.97581 109.833 7.97581H115.923C116.044 7.97581 116.094 8.13076 115.996 8.20194L111.069 11.7815C110.763 12.0043 110.634 12.3992 110.752 12.7597L112.633 18.5515C112.671 18.6667 112.539 18.7625 112.441 18.6913L107.514 15.1118C107.208 14.889 106.792 14.889 106.486 15.1118L101.559 18.6913C101.461 18.7625 101.329 18.6667 101.367 18.5515L103.248 12.7597C103.366 12.3992 103.237 12.0043 102.931 11.7815L98.0037 8.20194C97.9058 8.13077 97.9561 7.97581 98.0772 7.97581H104.167C104.546 7.97581 104.882 7.73172 104.999 7.3712L106.881 1.57941Z" stroke="#9E82B9" stroke-width="0.75"/>
</svg>
